<?xml version="1.0" encoding="UTF-8" standalone="no"?><!DOCTYPE svg PUBLIC "-//W3C//DTD SVG 1.1//EN" "http://www.w3.org/Graphics/SVG/1.1/DTD/svg11.dtd"><svg width="100%" height="100%" viewBox="0 0 512 512" version="1.1" xmlns="http://www.w3.org/2000/svg" xmlns:xlink="http://www.w3.org/1999/xlink" xml:space="preserve" ><g><ellipse cx="257.584" cy="375.925" rx="21.978" ry="21.514" /><path d="M254.843,95.963c-44.112,0 -80,35.888 -80,80c0,11.046 8.954,20 20,20c11.046,0 20,-8.954 20,-20c0,-22.056 17.944,-40 40,-40c22.056,0 40,17.944 40,40c0,22.056 -17.944,40 -40,40c-11.046,0 -20,8.954 -20,20l1.373,71.845c0,11.046 8.954,20 20,20c11.046,0 20,-8.954 20,-20l-1.373,-54.376c34.466,-8.903 60,-40.26 60,-77.469c0,-44.112 -35.888,-80 -80,-80Z"/></g></svg>