<?xml version="1.0" encoding="UTF-8" standalone="no"?><!DOCTYPE svg PUBLIC "-//W3C//DTD SVG 1.1//EN" "http://www.w3.org/Graphics/SVG/1.1/DTD/svg11.dtd"><svg width="100%" height="100%" viewBox="0 0 477 477" version="1.1" xmlns="http://www.w3.org/2000/svg" xmlns:xlink="http://www.w3.org/1999/xlink" xml:space="preserve" style="fill-rule:evenodd;clip-rule:evenodd;stroke-linejoin:round;stroke-miterlimit:2;"><g><path d="M391.3,203.4l0,-2.4c-0.1,-7.5 -6.3,-13.4 -13.7,-13.3c-7.5,0.1 -13.4,6.3 -13.3,13.7l0,2c0,69.3 -56.4,125.8 -125.8,125.8c-69.4,0 -125.8,-56.4 -125.8,-125.8l0,-2.9c0.2,-7.5 -5.7,-13.6 -13.2,-13.8c-7.4,-0.1 -13.6,5.7 -13.8,13.2l0,3.5c0,79.7 61.3,145.3 139.3,152.2l0,94.4l-55.5,0c-7.5,0 -13.5,6 -13.5,13.5c0,7.5 6,13.5 13.5,13.5l138,0c7.5,0 13.5,-6 13.5,-13.5c0,-7.5 -6,-13.5 -13.5,-13.5l-55.5,0l0,-94.5c77.9,-6.8 139.3,-72.4 139.3,-152.1Z" style="fill-rule:nonzero;"/><path d="M237,295c49.9,0 90.5,-40.6 90.5,-90.5l0,-114c0,-49.9 -40.6,-90.5 -90.5,-90.5c-49.9,0 -90.5,40.6 -90.5,90.5l0,114c0,49.9 40.6,90.5 90.5,90.5Zm-63.5,-204.5c0,-35 28.5,-63.5 63.5,-63.5c35,0 63.5,28.5 63.5,63.5l0,114c0,35 -28.5,63.5 -63.5,63.5c-35,0 -63.5,-28.5 -63.5,-63.5l0,-114Z" style="fill-rule:nonzero;"/></g></svg>